<svg height="464pt" viewBox="-72 0 464 464.00001" width="464pt" xmlns="http://www.w3.org/2000/svg"><path d="m264 456h-208l-16-336h240zm0 0" fill="#e4e4e2"/><path d="m275.433594 216 2.277344-48h-235.421876l2.277344 48zm0 0" fill="#fbedbf"/><path d="m44.566406 216 11.433594 240h208l11.433594-240zm0 0" fill="#fd9226"/><g fill="#a45e14"><path d="m184 384c0 13.253906-10.746094 24-24 24s-24-10.746094-24-24 10.746094-24 24-24 24 10.746094 24 24zm0 0"/><path d="m184 432c0 13.253906-10.746094 24-24 24s-24-10.746094-24-24 10.746094-24 24-24 24 10.746094 24 24zm0 0"/><path d="m184 336c0 13.253906-10.746094 24-24 24s-24-10.746094-24-24 10.746094-24 24-24 24 10.746094 24 24zm0 0"/><path d="m136 360c0 13.253906-10.746094 24-24 24s-24-10.746094-24-24 10.746094-24 24-24 24 10.746094 24 24zm0 0"/><path d="m232 360c0 13.253906-10.746094 24-24 24s-24-10.746094-24-24 10.746094-24 24-24 24 10.746094 24 24zm0 0"/><path d="m232 408c0 13.253906-10.746094 24-24 24s-24-10.746094-24-24 10.746094-24 24-24 24 10.746094 24 24zm0 0"/><path d="m136 408c0 13.253906-10.746094 24-24 24s-24-10.746094-24-24 10.746094-24 24-24 24 10.746094 24 24zm0 0"/></g><path d="m312 128h-304c-4.417969 0-8-3.582031-8-8s3.582031-8 8-8h304c4.417969 0 8 3.582031 8 8s-3.582031 8-8 8zm0 0" fill="#dbdbdb"/><path d="m107.574219 319.199219-7.148438-14.320313 1.6875-.800781c6.101563-3.023437 9.941407-9.265625 9.886719-16.078125h16c.046875 12.851562-7.222656 24.605469-18.734375 30.3125zm0 0" fill="#e4831c"/><path d="m212.425781 319.199219-1.691406-.847657c-11.527344-5.710937-18.796875-17.488281-18.734375-30.351562h16c-.023438 6.78125 3.8125 12.988281 9.886719 16l1.6875.800781zm0 0" fill="#e4831c"/><path d="m136 8h48v168h-48zm0 0" fill="#99d8aa"/><path d="m136 112h48v64h-48zm0 0" fill="#91cda2"/><path d="m136 168h48v56h-48zm0 0" fill="#e4d7ae"/><path d="m136 216h48v48h-48zm0 0" fill="#ee8a24"/><path d="m312 112h-120v-104c0-4.417969-3.582031-8-8-8h-48c-4.417969 0-8 3.582031-8 8v104h-120c-4.417969 0-8 3.582031-8 8s3.582031 8 8 8h24.367188l3.640624 76.382812.566407 12 11.433593 240c.207032 4.265626 3.722657 7.617188 7.992188 7.617188h208c4.273438.003906 7.796875-3.347656 8-7.617188l11.433594-240 .566406-12 3.632812-76.382812h24.367188c4.417969 0 8-3.582031 8-8s-3.582031-8-8-8zm-168-96h32v96h-32zm0 112h32v32h-32zm0 48h32v32h-32zm0 48h32v32h-32zm-94.089844-64-1.519531-32h79.609375v32zm1.53125 32-.761718-16h77.320312v32h-75.800781zm108.558594 256c-8.835938 0-16-7.164062-16-16s7.164062-16 16-16 16 7.164062 16 16-7.164062 16-16 16zm0-48c-8.835938 0-16-7.164062-16-16s7.164062-16 16-16 16 7.164062 16 16-7.164062 16-16 16zm0-48c-8.835938 0-16-7.164062-16-16s7.164062-16 16-16 16 7.164062 16 16-7.164062 16-16 16zm96.375 96h-68.800781c2.25-3.871094 3.648437-8.175781 4.105469-12.632812 14.164062 8.523437 32.492187 4.792968 42.199218-8.585938 9.707032-13.382812 7.5625-31.960938-4.933594-42.78125 12.601563-10.792969 14.804688-29.457031 5.054688-42.886719-9.746094-13.429687-28.175781-17.121093-42.34375-8.480469-1.636719-16.257812-15.320312-28.628906-31.65625-28.628906s-30.019531 12.371094-31.65625 28.628906c-14.164062-8.582031-32.542969-4.871093-42.273438 8.53125-9.726562 13.402344-7.558593 32.023438 4.984376 42.835938-12.601563 10.792969-14.804688 29.457031-5.054688 42.886719 9.746094 13.429687 28.175781 17.121093 42.34375 8.480469.457031 4.457031 1.855469 8.761718 4.105469 12.632812h-68.800781l-10.6875-224h75.039062v40c0 4.417969 3.582031 8 8 8h48c4.417969 0 8-3.582031 8-8v-40h75.039062zm-48.375-56c8.835938 0 16 7.164062 16 16s-7.164062 16-16 16-16-7.164062-16-16 7.164062-16 16-16zm-16-32c0-8.835938 7.164062-16 16-16s16 7.164062 16 16-7.164062 16-16 16-16-7.164062-16-16zm-80 16c-8.835938 0-16-7.164062-16-16s7.164062-16 16-16 16 7.164062 16 16-7.164062 16-16 16zm16 32c0 8.835938-7.164062 16-16 16s-16-7.164062-16-16 7.164062-16 16-16 16 7.164062 16 16zm140.558594-216-.757813 16h-75.800781v-32h77.320312zm1.53125-32h-78.089844v-32h79.609375zm0 0"/><path d="m102.113281 304-1.6875.800781 7.148438 14.320313 1.691406-.847656c11.5-5.699219 18.765625-17.4375 18.734375-30.273438h-16c.023438 6.78125-3.8125 12.988281-9.886719 16zm0 0"/><path d="m210.734375 318.3125 1.691406.847656 7.148438-14.320312-1.6875-.800782c-6.085938-3.019531-9.925781-9.242187-9.886719-16.039062h-16c-.046875 12.851562 7.222656 24.605469 18.734375 30.3125zm0 0"/></svg>